
<svg
   version="1.1"
   id="laptop_entire-graphic"
   x="0px"
   y="0px"
   viewBox="100 50 400 330"
   xml:space="preserve"
   style="enable-background:new 0 0 600 450;"
   xmlns:xlink="http://www.w3.org/1999/xlink"
   xmlns="http://www.w3.org/2000/svg"
   xmlns:svg="http://www.w3.org/2000/svg"><defs
   id="defs1388" />
<style>
   #laptop-main__animation {
    animation: MoveUpDown 3s linear infinite;
    position: absolute;
    left: 0;
    bottom: 0;
}

#laptop_large-purple-circle{
    animation: MoveUpDown 4s ease infinite;
    position: absolute;
    left: 0;
    bottom: 0; 
}

#laptop_small-blue-circle {
    animation: MoveUpDown 5s ease infinite;
    position: absolute;
    left: 0;
    bottom: 0; 
}

#laptop_large-blue-circle {
    animation: MoveUpDown 6s ease infinite;
    position: absolute;
    left: 0;
    bottom: 0;  
}

@keyframes MoveUpDown {
    0%, 100% {
      transform: translateY(0);
    }
    50% {
      transform: translateY(-15px);
    }
}
</style>

<radialGradient
   id="SVGID_1_"
   cx="214.0476"
   cy="1725.9846"
   r="376.2386"
   gradientTransform="matrix(1.1472 0 0 1.1144 52.1502 -1699.1658)"
   gradientUnits="userSpaceOnUse">
	<stop
   offset="0"
   style="stop-color:#22215B"
   id="stop719" />
	<stop
   offset="0.3261"
   style="stop-color:#1E1E55"
   id="stop721" />
	<stop
   offset="0.7509"
   style="stop-color:#141645"
   id="stop723" />
	<stop
   offset="1"
   style="stop-color:#0C0F38"
   id="stop725" />
</radialGradient>



<g
   id="g855">
	
		<linearGradient
   id="SVGID_00000072963678161877512030000001910250995170657409_"
   gradientUnits="userSpaceOnUse"
   x1="340.5188"
   y1="1011.3773"
   x2="387.5409"
   y2="1011.3773"
   gradientTransform="matrix(-0.7071 0.7071 -0.7071 -0.7071 1119.8167 734.1299)">
		<stop
   offset="0"
   style="stop-color:#D4088C"
   id="stop762" />
		<stop
   offset="0.045"
   style="stop-color:#CC088C"
   id="stop764" />
		<stop
   offset="0.4621"
   style="stop-color:#85078A"
   id="stop766" />
		<stop
   offset="0.7624"
   style="stop-color:#590689"
   id="stop768" />
		<stop
   offset="0.914"
   style="stop-color:#480689"
   id="stop770" />
	</linearGradient>
	<circle
   style="fill:url(#SVGID_00000072963678161877512030000001910250995170657409_);"
   cx="147.266"
   cy="276.391"
   id="laptop_large-purple-circle"
   r="23.511" />
	
		<linearGradient
   id="SVGID_00000120541147479601687300000009839437231145191329_"
   gradientUnits="userSpaceOnUse"
   x1="220.7185"
   y1="1115.0159"
   x2="240.1911"
   y2="1115.0159"
   gradientTransform="matrix(-1 0 0 -1 408.1528 1225.2839)">
		<stop
   offset="0"
   style="stop-color:#6EE8FC"
   id="stop775" />
		<stop
   offset="0.1572"
   style="stop-color:#6AE2FB"
   id="stop777" />
		<stop
   offset="0.3681"
   style="stop-color:#5ED1F7"
   id="stop779" />
		<stop
   offset="0.6094"
   style="stop-color:#4BB5F1"
   id="stop781" />
		<stop
   offset="0.8716"
   style="stop-color:#308EE8"
   id="stop783" />
		<stop
   offset="0.9624"
   style="stop-color:#267FE5"
   id="stop785" />
	</linearGradient>
	<circle
   style="fill:url(#SVGID_00000120541147479601687300000009839437231145191329_);"
   cx="177.698"
   cy="110.268"
   id="laptop_small-blue-circle"
   r="9.736" />
	
		<linearGradient
   id="SVGID_00000061449883598652237420000003891303717549870516_"
   gradientUnits="userSpaceOnUse"
   x1="82.7736"
   y1="798.7752"
   x2="126.551"
   y2="798.7752"
   gradientTransform="matrix(0.8955 0.445 -0.445 0.8955 720.2325 -555.8404)">
		<stop
   offset="0"
   style="stop-color:#6EE8FC"
   id="stop790" />
		<stop
   offset="0.1572"
   style="stop-color:#6AE2FB"
   id="stop792" />
		<stop
   offset="0.3681"
   style="stop-color:#5ED1F7"
   id="stop794" />
		<stop
   offset="0.6094"
   style="stop-color:#4BB5F1"
   id="stop796" />
		<stop
   offset="0.8716"
   style="stop-color:#308EE8"
   id="stop798" />
		<stop
   offset="0.9624"
   style="stop-color:#267FE5"
   id="stop800" />
	</linearGradient>
	<circle
   style="fill:url(#SVGID_00000061449883598652237420000003891303717549870516_);"
   cx="456.628"
   cy="205.106"
   id="laptop_large-blue-circle"
   r="17.497" />
	<path
   style="opacity:0.8;fill:#0C0F38;"
   d="M461.11,275.984c-7.037,1.365-14.659-0.821-17.024-4.884   c-2.365-4.063,1.422-8.463,8.458-9.829c7.037-1.366,14.659,0.821,17.024,4.884C471.934,270.218,468.147,274.619,461.11,275.984z"
   id="path805" />
	<path
   style="opacity:0.8;fill:#0C0F38;"
   d="M153.503,355.221c-9.79,1.9-20.395-1.142-23.686-6.795   c-3.291-5.652,1.978-11.775,11.768-13.675c9.79-1.9,20.395,1.142,23.686,6.795C168.562,347.198,163.293,353.321,153.503,355.221z"
   id="path807" />
	<path
   style="opacity:0.8;fill:#0C0F38;"
   d="M179.837,149.624c-3.515,0.682-7.321-0.41-8.503-2.439   c-1.181-2.029,0.71-4.227,4.225-4.909c3.515-0.682,7.321,0.41,8.503,2.439C185.243,146.744,183.352,148.942,179.837,149.624z"
   id="path809" />
	<g
   id="g829">
		<circle
   style="opacity:0.8;fill:#D4088C;"
   cx="242.019"
   cy="69.757"
   r="2.494"
   id="circle811" />
		<circle
   style="opacity:0.8;fill:#D4088C;"
   cx="198.298"
   cy="323.392"
   r="3.005"
   id="circle813" />
		<path
   style="fill:#6EE8FC;"
   d="M180.791,310.092c0,0.854-0.693,1.547-1.547,1.547c-0.854,0-1.547-0.692-1.547-1.547    s0.693-1.547,1.547-1.547C180.099,308.546,180.791,309.238,180.791,310.092z"
   id="path815" />
		<path
   style="fill:#6EE8FC;"
   d="M443.382,252.986c0,0.883-0.716,1.598-1.598,1.598c-0.883,0-1.598-0.716-1.598-1.598    c0-0.883,0.716-1.598,1.598-1.598C442.666,251.387,443.382,252.103,443.382,252.986z"
   id="path817" />
		<g
   id="g825">
			<circle
   style="fill:#6EE8FC;"
   cx="145.294"
   cy="145.055"
   r="2.251"
   id="circle819" />
			<path
   style="fill:#6EE8FC;"
   d="M315.751,62.986c0,1.243-1.008,2.251-2.251,2.251c-1.243,0-2.251-1.008-2.251-2.251     c0-1.243,1.008-2.251,2.251-2.251C314.743,60.735,315.751,61.743,315.751,62.986z"
   id="path821" />
			<path
   style="fill:#6EE8FC;"
   d="M156.707,140.067c0,0.689-0.558,1.247-1.247,1.247c-0.689,0-1.247-0.558-1.247-1.247     c0-0.689,0.558-1.247,1.247-1.247C156.148,138.82,156.707,139.379,156.707,140.067z"
   id="path823" />
		</g>
		<path
   style="fill:#D4088C;"
   d="M371.237,71.024c0,0.813-0.659,1.473-1.473,1.473c-0.813,0-1.473-0.659-1.473-1.473    c0-0.814,0.659-1.473,1.473-1.473C370.577,69.551,371.237,70.21,371.237,71.024z"
   id="path827" />
	</g>
	<g
   id="g843">
		<g
   id="g833">
			<polygon
   style="fill:#6EE1F8;"
   points="154.995,218.852 154.456,216.927 158.738,215.73 157.54,211.449 159.466,210.91      161.202,217.117    "
   id="polygon831" />
		</g>
		<g
   id="g837">
			<polygon
   style="fill:#6EE1F8;"
   points="151.219,225.562 150.68,223.637 154.96,222.44 153.763,218.159 155.689,217.62      157.425,223.827    "
   id="polygon835" />
		</g>
		<g
   id="g841">
			<polygon
   style="fill:#6EE1F8;"
   points="155.23,223.403 153.493,217.196 159.701,215.461 160.24,217.387 155.958,218.583      157.156,222.864    "
   id="polygon839" />
		</g>
	</g>
	<path
   style="fill:#6EE1F8;"
   d="M302.919,75.784c-2.625,0-4.761-2.135-4.761-4.76s2.136-4.761,4.761-4.761s4.76,2.136,4.76,4.761   S305.544,75.784,302.919,75.784z M302.919,68.263c-1.522,0-2.761,1.238-2.761,2.761c0,1.521,1.238,2.76,2.761,2.76   c1.521,0,2.76-1.238,2.76-2.76C305.679,69.502,304.441,68.263,302.919,68.263z"
   id="path845" />
	<path
   style="fill:#6EE1F8;"
   d="M407.331,313.944l-5.402-5.402l5.402-5.402l5.402,5.402L407.331,313.944z M404.757,308.542   l2.574,2.574l2.574-2.574l-2.574-2.574L404.757,308.542z"
   id="path847" />
	<g
   id="g853">
		
			<rect
   x="421.376"
   y="116.289"
   transform="matrix(0.707 -0.7072 0.7072 0.707 38.6098 333.9572)"
   style="fill:#D4088C;"
   width="2"
   height="8.178"
   id="rect849" />
		
			<rect
   x="418.287"
   y="119.378"
   transform="matrix(0.7071 -0.7071 0.7071 0.7071 38.5928 333.9266)"
   style="fill:#D4088C;"
   width="8.178"
   height="2"
   id="rect851" />
	</g>
</g><path
   style="enable-background:new 0 0 600 450;display:inline;opacity:0.8;fill:#0c0f38"
   d="m 191.205,265.724 117.369,67.763 c 1.285,0.742 3.228,0.822 4.341,0.18 l 70.038,-40.437 c 1.112,-0.642 0.973,-1.764 -0.312,-2.506 L 265.272,222.961 c -1.285,-0.742 -3.228,-0.822 -4.341,-0.18 l -70.038,40.437 c -1.113,0.642 -0.973,1.764 0.312,2.506 z"
   id="path1017" />

<path
   style="fill:#D4088C;"
   d="M127.367,186.661c0,0.813-0.659,1.473-1.473,1.473c-0.813,0-1.473-0.659-1.473-1.473  s0.659-1.473,1.473-1.473C126.708,185.188,127.367,185.848,127.367,186.661z"
   id="path1015" />
<g
   id="laptop-main__animation">
	
	<g
   id="g1239">
		<g
   id="g1207">
			<g
   id="g1205">
				<g
   id="g1115">
					<g
   id="g1069">
						
							<linearGradient
   id="SVGID_00000129166920672119993920000005070434603341976962_"
   gradientUnits="userSpaceOnUse"
   x1="-5203.3965"
   y1="189.3575"
   x2="-5066.418"
   y2="189.3575"
   gradientTransform="matrix(-1 0 0 1 -4801.3818 0)">
							<stop
   offset="0"
   style="stop-color:#7BDAFF"
   id="stop1019" />
							<stop
   offset="1"
   style="stop-color:#59BDEF"
   id="stop1021" />
						</linearGradient>
						<path
   style="fill:url(#SVGID_00000129166920672119993920000005070434603341976962_);"
   d="M265.061,197.876l14.837-88.023        l-1.193-0.502l1.793-1.028l-0.003,0.011c0.348-0.232,0.84-0.218,1.381,0.095l118.575,68.459        c0.974,0.562,1.711,2.004,1.54,3.012l-14.955,88.723c-0.078,0.462-0.307,0.769-0.625,0.903l0.002,0.001l-1.754,1.013        l-0.301-1.638l0.1,0.03L266.6,200.888C265.627,200.326,264.89,198.885,265.061,197.876z"
   id="path1024" />
						<path
   style="fill:#3A9BD5;"
   d="M399.789,179.295l1.949-0.862c0.219,0.499,0.326,1.024,0.251,1.467l-14.955,88.723        c-0.078,0.462-0.307,0.769-0.625,0.903l0.002,0.001l-1.754,1.013l-0.301-1.638l0.1,0.03l-5.964-3.443L399.789,179.295z"
   id="path1026" />
						
							<linearGradient
   id="SVGID_00000176751857539500709540000000721625125758011557_"
   gradientUnits="userSpaceOnUse"
   x1="-5201.5361"
   y1="189.9553"
   x2="-5064.5576"
   y2="189.9553"
   gradientTransform="matrix(-1 0 0 1 -4801.3818 0)">
							<stop
   offset="0"
   style="stop-color:#2573BA"
   id="stop1028" />
							<stop
   offset="1"
   style="stop-color:#0063AD"
   id="stop1030" />
						</linearGradient>
						<path
   style="fill:url(#SVGID_00000176751857539500709540000000721625125758011557_);"
   d="M264.74,201.956l118.575,68.459        c0.915,0.529,1.699,0.223,1.86-0.725l14.955-88.723c0.171-1.008-0.566-2.45-1.54-3.012l-118.575-68.459        c-0.915-0.529-1.699-0.223-1.86,0.724l-14.955,88.723C263.029,199.952,263.766,201.393,264.74,201.956z"
   id="path1033" />
						
							<linearGradient
   id="SVGID_00000150781558160680746080000011053485041516765852_"
   gradientUnits="userSpaceOnUse"
   x1="-5201.5361"
   y1="189.9553"
   x2="-5064.5576"
   y2="189.9553"
   gradientTransform="matrix(-1 0 0 1 -4801.3818 0)">
							<stop
   offset="0"
   style="stop-color:#2C75E4"
   id="stop1035" />
							<stop
   offset="0.0448"
   style="stop-color:#3461D5"
   id="stop1037" />
							<stop
   offset="0.1323"
   style="stop-color:#4140BB"
   id="stop1039" />
							<stop
   offset="0.2225"
   style="stop-color:#4B27A7"
   id="stop1041" />
							<stop
   offset="0.3154"
   style="stop-color:#521499"
   id="stop1043" />
							<stop
   offset="0.4127"
   style="stop-color:#570A91"
   id="stop1045" />
							<stop
   offset="0.5215"
   style="stop-color:#58068E"
   id="stop1047" />
							<stop
   offset="0.6592"
   style="stop-color:#5B078F"
   id="stop1049" />
							<stop
   offset="0.7607"
   style="stop-color:#640A92"
   id="stop1051" />
							<stop
   offset="0.8506"
   style="stop-color:#740F98"
   id="stop1053" />
							<stop
   offset="0.9332"
   style="stop-color:#8B17A0"
   id="stop1055" />
							<stop
   offset="1"
   style="stop-color:#A31FA9"
   id="stop1057" />
						</linearGradient>
						<path
   style="fill:url(#SVGID_00000150781558160680746080000011053485041516765852_);"
   d="M264.74,201.956l118.575,68.459        c0.915,0.529,1.699,0.223,1.86-0.725l14.955-88.723c0.171-1.008-0.566-2.45-1.54-3.012l-118.575-68.459        c-0.915-0.529-1.699-0.223-1.86,0.724l-14.955,88.723C263.029,199.952,263.766,201.393,264.74,201.956z"
   id="path1060" />
						
							<linearGradient
   id="SVGID_00000128457544476610292380000004185505106394317724_"
   gradientUnits="userSpaceOnUse"
   x1="-5198.7222"
   y1="189.972"
   x2="-5067.5054"
   y2="189.972"
   gradientTransform="matrix(-1 0 0 1 -4801.3818 0)">
							<stop
   offset="0"
   style="stop-color:#7BDAFF"
   id="stop1062" />
							<stop
   offset="1"
   style="stop-color:#59BDEF"
   id="stop1064" />
						</linearGradient>
						<polygon
   style="fill:url(#SVGID_00000128457544476610292380000004185505106394317724_);"
   points="280.22,114.381         397.34,182.004 383.166,265.563 266.124,197.984       "
   id="polygon1067" />
					</g>
					<g
   id="g1113">
						
							<linearGradient
   id="SVGID_00000142161526534683725870000008290222301159758744_"
   gradientUnits="userSpaceOnUse"
   x1="-5185.0444"
   y1="263.975"
   x2="-4991.5859"
   y2="263.975"
   gradientTransform="matrix(-1 0 0 1 -4801.3818 0)">
							<stop
   offset="0"
   style="stop-color:#2C75E4"
   id="stop1071" />
							<stop
   offset="0.0448"
   style="stop-color:#3461D5"
   id="stop1073" />
							<stop
   offset="0.1323"
   style="stop-color:#4140BB"
   id="stop1075" />
							<stop
   offset="0.2225"
   style="stop-color:#4B27A7"
   id="stop1077" />
							<stop
   offset="0.3154"
   style="stop-color:#521499"
   id="stop1079" />
							<stop
   offset="0.4127"
   style="stop-color:#570A91"
   id="stop1081" />
							<stop
   offset="0.5215"
   style="stop-color:#58068E"
   id="stop1083" />
							<stop
   offset="0.6592"
   style="stop-color:#5B078F"
   id="stop1085" />
							<stop
   offset="0.7607"
   style="stop-color:#640A92"
   id="stop1087" />
							<stop
   offset="0.8506"
   style="stop-color:#740F98"
   id="stop1089" />
							<stop
   offset="0.9332"
   style="stop-color:#8B17A0"
   id="stop1091" />
							<stop
   offset="1"
   style="stop-color:#A31FA9"
   id="stop1093" />
						</linearGradient>
						<path
   style="fill:url(#SVGID_00000142161526534683725870000008290222301159758744_);"
   d="M190.204,243.961l6.471,3.379        l64.887-37.462c1.086-0.627,2.982-0.548,4.235,0.176l111.911,64.612c1.071-0.599,5.954-2.947,5.954-2.947l-2.369,6.172        c0,0-0.008-0.006-0.009-0.008c-0.098,0.274-0.309,0.531-0.662,0.735l-68.339,39.455c-1.086,0.627-2.982,0.548-4.235-0.175        l-114.521-66.119c-0.515-0.297-0.83-0.657-0.961-1.021l-0.009,0.006L190.204,243.961z"
   id="path1096" />
						
							<radialGradient
   id="SVGID_00000002371859826020326850000016080276038817567364_"
   cx="-5190.9712"
   cy="273.191"
   r="205.3948"
   gradientTransform="matrix(-1 0 0 1 -4801.3818 0)"
   gradientUnits="userSpaceOnUse">
							<stop
   offset="0"
   style="stop-color:#2979E4"
   id="stop1098" />
							<stop
   offset="0.2449"
   style="stop-color:#4958CD"
   id="stop1100" />
							<stop
   offset="0.5716"
   style="stop-color:#6E33B2"
   id="stop1102" />
							<stop
   offset="0.8349"
   style="stop-color:#851BA1"
   id="stop1104" />
							<stop
   offset="1"
   style="stop-color:#8D139B"
   id="stop1106" />
						</radialGradient>
						<path
   style="fill:url(#SVGID_00000002371859826020326850000016080276038817567364_);"
   d="M191.205,245.024l117.369,67.763        c1.285,0.742,3.228,0.822,4.341,0.18l70.038-40.437c1.112-0.642,0.973-1.764-0.312-2.506l-117.369-67.763        c-1.285-0.742-3.228-0.822-4.341-0.18l-70.038,40.437C189.78,243.161,189.92,244.283,191.205,245.024z"
   id="path1109" />
						<path
   style="fill:#6EE8FC;"
   d="M191.205,243.877l117.369,67.763c1.285,0.742,3.228,0.822,4.341,0.18l70.038-40.437        c0.265-0.153,0.456-0.333,0.58-0.529c0.345,0.602,0.164,1.246-0.58,1.676l-70.038,40.437c-1.113,0.642-3.056,0.562-4.341-0.18        l-117.369-67.763c-0.979-0.565-1.291-1.351-0.892-1.977C190.483,243.344,190.78,243.632,191.205,243.877z"
   id="path1111" />
					</g>
				</g>
				<g
   style="opacity:0.11;"
   id="g1203">
					<defs
   id="defs1118">
						<polygon
   id="SVGID_00000053547170535213988130000009666324792994812044_"
   style="opacity:0.11;"
   points="281.565,115.159         397.34,182.004 383.166,265.563 267.468,198.762       " />
					</defs>
					<clipPath
   id="SVGID_00000173150384525556504050000003318316451470169015_">
						<use
   xlink:href="#SVGID_00000053547170535213988130000009666324792994812044_"
   style="overflow:visible;"
   id="use1120" />
					</clipPath>
					<g
   clip-path="url(#SVGID_00000173150384525556504050000003318316451470169015_)"
   id="g1201"
   style="clip-path:url(#SVGID_00000173150384525556504050000003318316451470169015_);">
						
							<linearGradient
   id="SVGID_00000159467945173347550380000014871204624774746781_"
   gradientUnits="userSpaceOnUse"
   x1="-5208.7134"
   y1="216.1095"
   x2="-4993.2261"
   y2="216.1095"
   gradientTransform="matrix(-1 0 0 1 -4801.3818 0)">
							<stop
   offset="0"
   style="stop-color:#C0BFF6"
   id="stop1123" />
							<stop
   offset="0.2938"
   style="stop-color:#C5C4F7"
   id="stop1125" />
							<stop
   offset="0.6399"
   style="stop-color:#D3D2F9"
   id="stop1127" />
							<stop
   offset="1"
   style="stop-color:#E9E9FD"
   id="stop1129" />
						</linearGradient>
						<path
   style="fill:url(#SVGID_00000159467945173347550380000014871204624774746781_);"
   d="M265.439,202.193l130.664,75.439        c1.43,0.826,3.594,0.915,4.832,0.2l77.972-45.017c1.239-0.715,1.083-1.964-0.347-2.79l-130.664-75.439        c-1.43-0.826-3.594-0.915-4.832-0.2l-77.972,45.017C263.853,200.119,264.008,201.368,265.439,202.193z"
   id="path1132" />
						<g
   id="g1199">
							<g
   id="g1197">
								
									<radialGradient
   id="SVGID_00000181084397079863887310000017212399777078068645_"
   cx="339.4817"
   cy="228.6797"
   r="40.1474"
   gradientUnits="userSpaceOnUse">
									<stop
   offset="0"
   style="stop-color:#22215B"
   id="stop1134" />
									<stop
   offset="0.3261"
   style="stop-color:#1E1E55"
   id="stop1136" />
									<stop
   offset="0.7509"
   style="stop-color:#141645"
   id="stop1138" />
									<stop
   offset="1"
   style="stop-color:#0C0F38"
   id="stop1140" />
								</radialGradient>
								<polygon
   style="fill:url(#SVGID_00000181084397079863887310000017212399777078068645_);"
   points="294.058,200.291           388.652,254.905 384.905,257.068 290.311,202.455         "
   id="polygon1143" />
								
									<radialGradient
   id="SVGID_00000118369965791906639820000002738951810187328930_"
   cx="347.1066"
   cy="221.5732"
   r="38.2352"
   gradientUnits="userSpaceOnUse">
									<stop
   offset="0"
   style="stop-color:#22215B"
   id="stop1145" />
									<stop
   offset="0.3261"
   style="stop-color:#1E1E55"
   id="stop1147" />
									<stop
   offset="0.7509"
   style="stop-color:#141645"
   id="stop1149" />
									<stop
   offset="1"
   style="stop-color:#0C0F38"
   id="stop1151" />
								</radialGradient>
								<polygon
   style="fill:url(#SVGID_00000118369965791906639820000002738951810187328930_);"
   points="304.025,194.537           393.935,246.446 390.188,248.609 300.278,196.7         "
   id="polygon1154" />
								<g
   id="g1158">
									<polygon
   style="fill:#6EE1F8;"
   points="400.649,250.322 409.046,255.171 405.299,257.334 396.901,252.486          "
   id="polygon1156" />
								</g>
								<g
   id="g1162">
									<polygon
   style="fill:#6EE1F8;"
   points="393.232,257.549 399.079,260.925 395.332,263.088 389.485,259.712          "
   id="polygon1160" />
								</g>
								
									<radialGradient
   id="SVGID_00000057118325939468834070000010907753530469720482_"
   cx="360.9071"
   cy="222.3297"
   r="44.4042"
   gradientUnits="userSpaceOnUse">
									<stop
   offset="0"
   style="stop-color:#22215B"
   id="stop1164" />
									<stop
   offset="0.3261"
   style="stop-color:#1E1E55"
   id="stop1166" />
									<stop
   offset="0.7509"
   style="stop-color:#141645"
   id="stop1168" />
									<stop
   offset="1"
   style="stop-color:#0C0F38"
   id="stop1170" />
								</radialGradient>
								<polygon
   style="fill:url(#SVGID_00000057118325939468834070000010907753530469720482_);"
   points="310.27,190.931           415.291,251.565 411.544,253.728 306.523,193.095         "
   id="polygon1173" />
								
									<radialGradient
   id="SVGID_00000026843783221809727490000003597235659007989128_"
   cx="367.1522"
   cy="218.7241"
   r="44.4042"
   gradientUnits="userSpaceOnUse">
									<stop
   offset="0"
   style="stop-color:#22215B"
   id="stop1175" />
									<stop
   offset="0.3261"
   style="stop-color:#1E1E55"
   id="stop1177" />
									<stop
   offset="0.7509"
   style="stop-color:#141645"
   id="stop1179" />
									<stop
   offset="1"
   style="stop-color:#0C0F38"
   id="stop1181" />
								</radialGradient>
								<polygon
   style="fill:url(#SVGID_00000026843783221809727490000003597235659007989128_);"
   points="316.516,187.326           421.536,247.959 417.789,250.123 312.768,189.489         "
   id="polygon1184" />
								
									<radialGradient
   id="SVGID_00000165208555824528881420000007520203546361352592_"
   cx="373.3973"
   cy="215.1185"
   r="44.4042"
   gradientUnits="userSpaceOnUse">
									<stop
   offset="0"
   style="stop-color:#22215B"
   id="stop1186" />
									<stop
   offset="0.3261"
   style="stop-color:#1E1E55"
   id="stop1188" />
									<stop
   offset="0.7509"
   style="stop-color:#141645"
   id="stop1190" />
									<stop
   offset="1"
   style="stop-color:#0C0F38"
   id="stop1192" />
								</radialGradient>
								<polygon
   style="fill:url(#SVGID_00000165208555824528881420000007520203546361352592_);"
   points="322.761,183.72           427.781,244.354 424.034,246.517 319.013,185.883         "
   id="polygon1195" />
							</g>
						</g>
					</g>
				</g>
			</g>
		</g>
		<g
   id="g1237">
			<g
   id="g1211">
				<polygon
   style="fill:#6EE1F8;"
   points="262.437,217.523 347.158,266.436 350.925,264.262 266.204,215.348     "
   id="polygon1209" />
			</g>
			<g
   id="g1215">
				<polygon
   style="fill:#6EE1F8;"
   points="253.201,222.855 332.667,268.734 336.434,266.559 256.968,220.68     "
   id="polygon1213" />
			</g>
			<g
   id="g1219">
				<polygon
   style="fill:#6EE1F8;"
   points="247.186,226.327 340.748,280.345 344.515,278.171 250.953,224.152     "
   id="polygon1217" />
			</g>
			<g
   id="g1223">
				<polygon
   style="fill:#6EE1F8;"
   points="241.171,229.8 334.733,283.818 338.5,281.643 244.938,227.625     "
   id="polygon1221" />
			</g>
			<g
   id="g1227">
				<polygon
   style="fill:#6EE1F8;"
   points="235.156,233.273 328.718,287.291 332.485,285.116 238.923,231.098     "
   id="polygon1225" />
			</g>
			<g
   id="g1231">
				<polygon
   style="fill:#6EE1F8;"
   points="352.277,269.392 356.044,271.567 359.811,269.392 356.044,267.217     "
   id="polygon1229" />
			</g>
			<g
   id="g1235">
				<polygon
   style="fill:#6EE1F8;"
   points="338.99,272.385 346.809,276.899 350.576,274.724 342.757,270.21     "
   id="polygon1233" />
			</g>
		</g>
	</g>
	<g
   style="opacity:0.5;"
   id="g1381">
		<polygon
   style="fill:#FFFFFF;"
   points="289.899,139.349 297.641,143.822 297.868,142.478 290.126,138.004   "
   id="polygon1241" />
		<polygon
   style="fill:#FFFFFF;"
   points="298.886,144.536 303.105,146.974 303.332,145.629 299.113,143.192   "
   id="polygon1243" />
		<polygon
   style="fill:#FFFFFF;"
   points="309.669,150.761 312.721,152.524 312.948,151.18 309.896,149.416   "
   id="polygon1245" />
		<polygon
   style="fill:#FFFFFF;"
   points="307.443,149.475 308.486,150.077 308.713,148.733 307.67,148.13   "
   id="polygon1247" />
		<polygon
   style="fill:#FFFFFF;"
   points="304.366,147.697 306.26,148.791 306.487,147.447 304.592,146.352   "
   id="polygon1249" />
		<polygon
   style="fill:#FFFFFF;"
   points="296.026,149.629 299.078,151.393 299.305,150.049 296.253,148.285   "
   id="polygon1251" />
		<polygon
   style="fill:#FFFFFF;"
   points="288.863,145.491 294.843,148.946 295.07,147.602 289.09,144.146   "
   id="polygon1253" />
		<g
   id="g1259">
			<polygon
   style="fill:#FFFFFF;"
   points="297.439,167.276 303.42,170.732 303.647,169.387 297.666,165.932    "
   id="polygon1255" />
			<polygon
   style="fill:#FFFFFF;"
   points="294.362,165.499 296.257,166.593 296.483,165.249 294.589,164.154    "
   id="polygon1257" />
		</g>
		<polygon
   style="fill:#FFFFFF;"
   points="298.436,161.126 304.417,164.581 304.644,163.237 298.663,159.782   "
   id="polygon1261" />
		<polygon
   style="fill:#FFFFFF;"
   points="295.359,159.348 297.254,160.443 297.48,159.099 295.586,158.004   "
   id="polygon1263" />
		<polygon
   style="fill:#FFFFFF;"
   points="293.029,193.817 281.763,187.308 281.536,188.653 292.802,195.162   "
   id="polygon1265" />
		<polygon
   style="fill:#FFFFFF;"
   points="297,196.111 294.212,194.501 293.985,195.845 296.773,197.456   "
   id="polygon1267" />
		<polygon
   style="fill:#FFFFFF;"
   points="316.796,197.415 305.53,190.906 305.303,192.25 316.569,198.759   "
   id="polygon1269" />
		<polygon
   style="fill:#FFFFFF;"
   points="320.766,199.708 317.979,198.098 317.752,199.442 320.539,201.053   "
   id="polygon1271" />
		<polygon
   style="fill:#FFFFFF;"
   points="285.334,186.001 282.281,184.238 282.055,185.582 285.107,187.345   "
   id="polygon1273" />
		<polygon
   style="fill:#FFFFFF;"
   points="303.903,189.981 300.851,188.218 300.624,189.562 303.676,191.326   "
   id="polygon1275" />
		<polygon
   style="fill:#FFFFFF;"
   points="292.497,190.14 286.517,186.684 286.29,188.029 292.27,191.484   "
   id="polygon1277" />
		<polygon
   style="fill:#FFFFFF;"
   points="295.574,191.917 293.68,190.823 293.453,192.167 295.347,193.262   "
   id="polygon1279" />
		<polygon
   style="fill:#FFFFFF;"
   points="302.792,196.081 296.812,192.626 296.585,193.97 302.565,197.425   "
   id="polygon1281" />
		<polygon
   style="fill:#FFFFFF;"
   points="305.869,197.859 303.975,196.764 303.748,198.108 305.642,199.203   "
   id="polygon1283" />
		<polygon
   style="fill:#FFFFFF;"
   points="303.385,193.054 300.332,191.29 300.106,192.634 303.158,194.398   "
   id="polygon1285" />
		<polygon
   style="fill:#FFFFFF;"
   points="310.548,197.192 304.568,193.737 304.341,195.081 310.321,198.537   "
   id="polygon1287" />
		<polygon
   style="fill:#FFFFFF;"
   points="313.625,198.97 311.731,197.876 311.504,199.22 313.398,200.314   "
   id="polygon1289" />
		<polygon
   style="fill:#FFFFFF;"
   points="289.045,184.775 282.799,181.167 282.573,182.511 288.818,186.119   "
   id="polygon1291" />
		<polygon
   style="fill:#FFFFFF;"
   points="294.744,188.068 290.228,185.458 290.001,186.803 294.517,189.412   "
   id="polygon1293" />
		<polygon
   style="fill:#FFFFFF;"
   points="298.979,190.515 295.927,188.751 295.7,190.096 298.752,191.859   "
   id="polygon1295" />
		<polygon
   style="fill:#FFFFFF;"
   points="328.581,204.21 322.335,200.602 322.108,201.946 328.354,205.554   "
   id="polygon1297" />
		<polygon
   style="fill:#FFFFFF;"
   points="334.28,207.503 329.763,204.893 329.536,206.238 334.053,208.847   "
   id="polygon1299" />
		<polygon
   style="fill:#FFFFFF;"
   points="338.515,209.95 335.462,208.186 335.236,209.53 338.288,211.294   "
   id="polygon1301" />
		<polygon
   style="fill:#FFFFFF;"
   points="326.135,163.635 332.381,167.243 332.608,165.899 326.362,162.29   "
   id="polygon1303" />
		<polygon
   style="fill:#FFFFFF;"
   points="320.436,160.342 324.953,162.951 325.18,161.607 320.663,158.997   "
   id="polygon1305" />
		<polygon
   style="fill:#FFFFFF;"
   points="316.201,157.895 319.254,159.658 319.48,158.314 316.428,156.551   "
   id="polygon1307" />
		<polygon
   style="fill:#FFFFFF;"
   points="324.062,159.054 330.307,162.662 330.534,161.318 324.289,157.71   "
   id="polygon1309" />
		<polygon
   style="fill:#FFFFFF;"
   points="318.363,155.761 322.879,158.37 323.106,157.026 318.59,154.417   "
   id="polygon1311" />
		<polygon
   style="fill:#FFFFFF;"
   points="314.128,153.314 317.18,155.078 317.407,153.734 314.354,151.97   "
   id="polygon1313" />
		<polygon
   style="fill:#FFFFFF;"
   points="298.849,164.737 300.958,165.956 301.185,164.611 299.075,163.393   "
   id="polygon1315" />
		<polygon
   style="fill:#FFFFFF;"
   points="294.878,162.443 297.665,164.053 297.892,162.709 295.105,161.099   "
   id="polygon1317" />
		<polygon
   style="fill:#FFFFFF;"
   points="289.603,181.722 283.358,178.114 283.131,179.458 289.376,183.067   "
   id="polygon1319" />
		<polygon
   style="fill:#FFFFFF;"
   points="295.302,185.015 290.786,182.406 290.559,183.75 295.076,186.359   "
   id="polygon1321" />
		<polygon
   style="fill:#FFFFFF;"
   points="299.538,187.462 296.485,185.698 296.258,187.043 299.311,188.806   "
   id="polygon1323" />
		<polygon
   style="fill:#FFFFFF;"
   points="285.985,176.262 283.876,175.043 283.649,176.388 285.759,177.606   "
   id="polygon1325" />
		<polygon
   style="fill:#FFFFFF;"
   points="289.956,178.556 287.168,176.945 286.942,178.29 289.729,179.9   "
   id="polygon1327" />
		<polygon
   style="fill:#FFFFFF;"
   points="295.63,181.834 291.139,179.239 290.912,180.584 295.404,183.179   "
   id="polygon1329" />
		<polygon
   style="fill:#FFFFFF;"
   points="301.717,156.27 303.826,157.488 304.053,156.144 301.943,154.925   "
   id="polygon1331" />
		<polygon
   style="fill:#FFFFFF;"
   points="297.746,153.975 300.534,155.586 300.76,154.242 297.973,152.631   "
   id="polygon1333" />
		<polygon
   style="fill:#FFFFFF;"
   points="292.072,150.697 296.563,153.292 296.79,151.948 292.299,149.353   "
   id="polygon1335" />
		<polygon
   style="fill:#FFFFFF;"
   points="304.93,161.254 309.421,163.849 309.648,162.505 305.157,159.91   "
   id="polygon1337" />
		<polygon
   style="fill:#FFFFFF;"
   points="297.584,157.251 303.638,160.749 303.865,159.405 297.811,155.907   "
   id="polygon1339" />
		<polygon
   style="fill:#FFFFFF;"
   points="294.507,155.473 296.401,156.568 296.628,155.223 294.734,154.129   "
   id="polygon1341" />
		<polygon
   style="fill:#FFFFFF;"
   points="291.554,153.767 293.448,154.862 293.675,153.517 291.781,152.423   "
   id="polygon1343" />
		<g
   id="g1369">
			<polygon
   style="fill:#FFFFFF;"
   points="291.962,171.119 297.942,174.574 298.169,173.23 292.189,169.775    "
   id="polygon1345" />
			<polygon
   style="fill:#FFFFFF;"
   points="288.885,169.341 290.779,170.436 291.006,169.092 289.112,167.997    "
   id="polygon1347" />
			<polygon
   style="fill:#FFFFFF;"
   points="292.374,174.73 294.483,175.949 294.71,174.604 292.601,173.386    "
   id="polygon1349" />
			<polygon
   style="fill:#FFFFFF;"
   points="299.82,172.268 301.929,173.487 302.156,172.143 300.047,170.924    "
   id="polygon1351" />
			<polygon
   style="fill:#FFFFFF;"
   points="302.827,174.003 307.888,176.926 308.115,175.582 303.054,172.659    "
   id="polygon1353" />
			<polygon
   style="fill:#FFFFFF;"
   points="308.786,177.443 311.797,179.181 312.024,177.837 309.013,176.098    "
   id="polygon1355" />
			<polygon
   style="fill:#FFFFFF;"
   points="288.404,172.436 291.191,174.046 291.418,172.702 288.63,171.092    "
   id="polygon1357" />
			<g
   id="g1363">
				<polygon
   style="fill:#FFFFFF;"
   points="288.141,175.591 290.251,176.81 290.478,175.465 288.368,174.247     "
   id="polygon1359" />
				<polygon
   style="fill:#FFFFFF;"
   points="284.171,173.297 286.958,174.907 287.185,173.563 284.398,171.953     "
   id="polygon1361" />
			</g>
			<polygon
   style="fill:#FFFFFF;"
   points="296.759,170.502 298.653,171.596 298.88,170.252 296.986,169.158    "
   id="polygon1365" />
			<polygon
   style="fill:#FFFFFF;"
   points="293.806,168.796 295.701,169.89 295.927,168.546 294.033,167.452    "
   id="polygon1367" />
		</g>
		<polygon
   style="fill:#FFFFFF;"
   points="308.352,153.361 314.813,157.094 315.04,155.749 308.579,152.016   "
   id="polygon1371" />
		<polygon
   style="fill:#FFFFFF;"
   points="301.115,149.18 307.169,152.677 307.396,151.333 301.342,147.835   "
   id="polygon1373" />
		<polygon
   style="fill:#FFFFFF;"
   points="298.038,147.402 299.932,148.496 300.159,147.152 298.265,146.057   "
   id="polygon1375" />
		<polygon
   style="fill:#FFFFFF;"
   points="295.085,145.696 296.98,146.79 297.206,145.446 295.312,144.351   "
   id="polygon1377" />
		<polygon
   style="fill:#FFFFFF;"
   points="293.471,144.763 289.384,142.402 289.611,141.057 293.698,143.419   "
   id="polygon1379" />
	</g>
</g>
</svg>
