<svg xmlns="http://www.w3.org/2000/svg" version="1.0" viewBox="104 4 93 292">
<g transform="translate(0.000000,300.000000) scale(0.100000,-0.100000)" fill="#fff" stroke="none">
<path d="M1040 2555 l0 -405 115 0 115 0 2 201 3 202 75 -106 75 -106 76 -1 75 0 74 105 c41 58 78 105 82 105 5 0 8 -80 8 -177 0 -98 -1 -188 0 -200 0 -23 3 -23 115 -23 l115 0 0 405 0 405 -98 0 -98 0 -134 -190 c-74 -104 -137 -190 -140 -190 -3 0 -65 86 -138 190 l-133 190 -95 0 -94 0 0 -405z"/>
<path d="M1300 2010 l0 -80 200 0 200 0 0 80 0 80 -200 0 -200 0 0 -80z"/>
<path d="M1410 1849 c-73 -14 -185 -75 -225 -122 -126 -146 -151 -368 -61 -545 34 -68 132 -155 202 -182 63 -23 188 -42 222 -33 22 5 22 7 22 244 l0 239 -85 0 -85 0 0 -116 0 -116 -32 19 c-69 40 -101 144 -74 237 38 129 196 186 327 118 119 -62 145 -224 53 -328 l-34 -38 0 -119 0 -119 33 6 c83 16 197 129 238 236 27 70 37 225 19 301 -27 117 -113 229 -213 281 -80 40 -209 56 -307 37z"/>
<path d="M1402 889 c-220 -43 -360 -257 -322 -495 15 -93 49 -163 109 -227 83 -87 182 -126 323 -127 131 0 246 47 327 135 41 45 83 121 96 178 l7 27 -120 0 -119 0 -26 -39 c-63 -96 -234 -109 -308 -25 -57 65 -70 175 -30 258 66 135 261 141 347 11 16 -24 20 -25 135 -25 l118 0 -19 56 c-26 75 -50 112 -110 168 -103 96 -255 135 -408 105z"/>
</g>
</svg>